<svg width="68" height="68" viewBox="0 0 68 68" fill="none" xmlns="http://www.w3.org/2000/svg">
<g id="Group 19">
<path id="Vector" d="M34 0.101501C15.3082 0.101501 0.101501 15.3082 0.101501 34C0.101501 52.6918 15.3082 67.8985 34 67.8985C52.6918 67.8985 67.8985 52.6918 67.8985 34C67.8985 15.3082 52.6918 0.101501 34 0.101501ZM34 61.122C19.046 61.122 6.87797 48.955 6.87797 34C6.87797 19.045 19.0455 6.87797 34 6.87797C48.9545 6.87797 61.122 19.0455 61.122 34C61.122 48.9545 48.9545 61.122 34 61.122Z" fill="white"/>
<path id="Vector_2" d="M37.3343 33.021C37.3617 32.8477 37.3879 32.6749 37.3879 32.4937V17.7172C37.3879 15.8464 35.8706 14.3291 33.9998 14.3291C32.129 14.3291 30.6117 15.8464 30.6117 17.7172V32.495C30.6117 32.7834 30.5755 36.0633 31.6396 37.0171L42.1243 46.4162C42.7708 46.9966 43.5796 47.2812 44.3847 47.2812C45.3138 47.2812 46.2398 46.901 46.9093 46.1547C48.1583 44.7608 48.0417 42.6195 46.6483 41.3705L37.3343 33.021Z" fill="white"/>
</g>
</svg>
