<svg width="74" height="54" viewBox="0 0 74 54" fill="none" xmlns="http://www.w3.org/2000/svg">
<g id="Group 17">
<path id="Vector" d="M60.276 17.6595V24.8123C60.276 25.067 60.1762 25.3218 60.0102 25.5208C56.3342 29.8832 45.7151 31.4337 37.0011 31.4337C28.2758 31.4337 17.6573 29.8833 13.9705 25.5208C13.804 25.3217 13.7158 25.067 13.7158 24.8123V17.6595L35.3293 22.3323C35.8387 22.4652 36.3813 22.5203 37.0011 22.5203C37.5993 22.5203 38.1639 22.4652 38.6286 22.3433L60.276 17.6595Z" fill="white"/>
<path id="Vector_2" d="M73.4403 10.4731C73.4403 11.7131 72.6209 12.721 71.414 12.9867L67.6493 13.806V26.0303C69.3327 26.6726 70.5396 28.7651 70.5506 31.3117L70.2848 31.046C69.6645 30.4924 68.8788 30.1825 68.0589 30.1825C67.904 30.1825 67.7491 30.1936 67.6162 30.2156L62.5447 30.88C62.6886 28.5329 63.8514 26.6279 65.4344 26.0303V14.2818L38.1618 20.1837C37.7852 20.2724 37.3866 20.3055 36.999 20.3055C36.6004 20.3055 36.2127 20.2724 35.8472 20.1837L2.57392 12.9862C1.36751 12.721 0.559265 11.7131 0.559265 10.4732C0.559265 9.24417 1.36756 8.23625 2.57446 7.97057L35.8477 0.762097C36.5893 0.607166 37.3981 0.596127 38.1618 0.762097L71.4122 7.97057C72.6197 8.23685 73.439 9.24421 73.439 10.4732L73.4403 10.4731Z" fill="white"/>
<path id="Vector_3" d="M39.3492 46.7272L39.5246 46.7472V36.1395L36.989 36.4714L34.4643 36.1395V46.7472L34.6455 46.7267L32.3394 51.7913C32.0857 52.348 32.332 53.0045 32.8882 53.2582C33.4528 53.514 34.1036 53.2603 34.3551 52.7094L36.9974 46.9063L39.6397 52.7088C39.8939 53.2655 40.5514 53.5114 41.1066 53.2577C41.6628 53.004 41.9091 52.3475 41.6554 51.7908L39.3492 46.7272Z" fill="white"/>
<path id="Vector_4" d="M32.2503 35.8527L6.09635 32.4089C5.77545 32.3648 5.45402 32.4641 5.21032 32.6857C3.28387 34.4132 2.67466 39.1191 2.91829 43.0056C3.04014 45.0098 3.52753 48.5529 5.32111 49.7928C5.50913 49.9257 5.73078 49.9919 5.95241 49.9919C5.99653 49.9919 6.04117 49.9919 6.07426 49.9808L32.2497 47.0024L32.2503 35.8527Z" fill="white"/>
<path id="Vector_5" d="M69.6434 33.7592C69.3777 33.3054 69.0899 32.9619 68.791 32.6851C68.5473 32.4635 68.2264 32.3642 67.905 32.4083L41.7403 35.8521V47.0023L67.9279 49.9808C68.1936 50.0138 68.4594 49.9477 68.681 49.7927C71.8586 47.5779 71.6705 37.3138 69.6443 33.7591L69.6434 33.7592Z" fill="white"/>
</g>
</svg>
