<svg width="70" height="72" viewBox="0 0 70 72" fill="none" xmlns="http://www.w3.org/2000/svg">
<g id="Group 20">
<path id="Vector" d="M67.8659 5.43076C67.0377 5.43076 66.1343 5.50587 65.2303 5.50587H65.1552V2.26849C65.1552 1.13929 64.2519 0.235413 63.1222 0.235413C53.4095 0.235413 43.9222 2.11777 34.9622 5.80731C26.002 2.11777 16.5151 0.235413 6.80216 0.235413C5.67296 0.235413 4.76908 1.06367 4.76908 2.26849V5.58156H4.69398C3.79061 5.50593 2.88719 5.43083 1.98339 5.43083C0.854195 5.43083 0.0258789 6.3342 0.0258789 7.4639V47.5204C0.0258789 48.6496 0.854141 49.4779 1.98339 49.4779C8.38366 49.4779 14.7082 50.2311 20.8069 51.7369C20.2801 53.3178 19.9036 54.9742 19.9036 56.7059C19.9036 64.9885 26.6798 71.7647 34.9624 71.7647C43.245 71.7647 50.0212 64.9885 50.0212 56.7059C50.0212 54.9742 49.6446 53.3178 49.1178 51.7363C55.2922 50.2306 61.5411 49.4774 67.9414 49.4774C69.0706 49.4774 69.9744 48.6491 69.9744 47.5198L69.9739 7.46337C69.8988 6.33365 68.9955 5.43029 67.8657 5.43029L67.8659 5.43076ZM8.76002 4.22594C17.0426 4.45178 25.1741 6.18345 33.0047 9.34567V41.8727C30.2941 42.2493 27.885 43.3035 25.8519 44.8842C20.28 43.3785 14.5578 42.4745 8.83545 42.3244L8.83493 4.22553L8.76002 4.22594ZM34.9624 68.226C28.6378 68.226 23.5175 63.1062 23.5175 56.7811C23.5175 50.4565 28.6378 45.2611 34.9624 45.2611C41.287 45.2611 46.4072 50.3808 46.4072 56.7059C46.4072 63.0305 41.287 68.226 34.9624 68.226ZM61.1647 42.3248C55.4425 42.4755 49.7199 43.3789 44.1483 44.8846C42.1152 43.3032 39.6303 42.2491 36.9955 41.8731V9.34607C44.7508 6.18331 52.8825 4.45168 61.1649 4.2258L61.1647 42.3248Z" fill="white"/>
<path id="Vector_2" d="M14.1814 14.1645C18.3978 14.6162 22.6142 15.4444 26.7556 16.7243C26.9063 16.7995 27.1321 16.7995 27.358 16.7995C28.2613 16.7995 29.0144 16.197 29.2403 15.3687C29.5413 14.3146 28.9394 13.1855 27.8853 12.884C23.5182 11.6041 19.0759 10.7008 14.6337 10.1734C13.5796 10.0983 12.6006 10.851 12.4504 11.9051C12.3753 12.4324 12.5255 12.9592 12.9021 13.3358C13.2025 13.8631 13.6541 14.1645 14.1814 14.1645Z" fill="white"/>
<path id="Vector_3" d="M14.1813 21.7696C18.3976 22.2213 22.6141 23.0495 26.7554 24.3295C26.9061 24.4046 27.132 24.4046 27.2827 24.4046C28.1861 24.4046 28.9392 23.8021 29.1651 22.9738C29.466 21.9197 28.8641 20.7906 27.81 20.4891C23.518 19.2092 19.0006 18.3059 14.5584 17.7785C13.4292 17.7034 12.5253 18.4561 12.3752 19.5102C12.3001 20.0375 12.4503 20.5643 12.8268 20.9409C13.2024 21.4687 13.654 21.7696 14.1813 21.7696Z" fill="white"/>
<path id="Vector_4" d="M14.1814 29.3741C18.3978 29.8258 22.6142 30.6541 26.7556 31.934C26.9063 32.0091 27.1321 32.0091 27.358 32.0091C28.2613 32.0091 29.0144 31.4067 29.2403 30.5784C29.5413 29.5243 28.9394 28.3951 27.8853 28.0937C23.5933 26.8137 19.0759 25.9104 14.6337 25.3831C13.5796 25.308 12.6006 26.0606 12.4504 27.1147C12.3753 27.642 12.5255 28.1688 12.9021 28.5454C13.2025 29.0733 13.6541 29.299 14.1814 29.3741Z" fill="white"/>
<path id="Vector_5" d="M26.7554 39.5388C26.9061 39.6139 27.132 39.6139 27.2827 39.6139C28.1861 39.6139 28.9392 39.0115 29.1651 38.1832C29.466 37.1291 28.8641 36 27.81 35.6985C23.518 34.4186 19.0006 33.5152 14.5584 32.9879C13.4292 32.8372 12.4502 33.6654 12.3752 34.7196C12.3001 35.2469 12.4503 35.7736 12.8268 36.1503C13.1278 36.602 13.6551 36.8278 14.1819 36.9034C18.3977 37.4307 22.6141 38.259 26.7554 39.539L26.7554 39.5388Z" fill="white"/>
<path id="Vector_6" d="M42.6424 16.8001C42.8683 16.8001 43.019 16.8001 43.2448 16.7249C47.3104 15.5201 51.6025 14.6167 55.819 14.1651C56.3463 14.09 56.7979 13.8641 57.174 13.4119C57.4749 12.9602 57.6257 12.5086 57.6257 11.9812C57.5506 10.9271 56.6467 10.174 55.5926 10.174H55.4418C50.9996 10.6257 46.5574 11.529 42.1902 12.8846C41.6629 13.0353 41.2869 13.4119 40.9854 13.8636C40.7596 14.3153 40.6844 14.8426 40.8347 15.3693C40.9859 16.2732 41.7386 16.8001 42.6424 16.8001Z" fill="white"/>
<path id="Vector_7" d="M42.6425 24.4048C42.8683 24.4048 43.0191 24.4048 43.2449 24.3297C47.3105 23.1249 51.6025 22.2215 55.819 21.7698C56.3463 21.6947 56.798 21.4689 57.174 21.0167C57.475 20.565 57.6257 20.1133 57.6257 19.5859C57.475 18.5319 56.4965 17.7036 55.4425 17.8543C51.0002 18.306 46.4823 19.2093 42.1908 20.5649C41.6635 20.7156 41.2875 21.0922 40.986 21.5439C40.7602 21.9956 40.6851 22.5229 40.8353 23.0496C40.986 23.8023 41.7386 24.4048 42.6425 24.4048Z" fill="white"/>
<path id="Vector_8" d="M42.6425 32.0093C42.8683 32.0093 43.0191 32.0093 43.2449 31.9342C47.3105 30.7293 51.5275 29.8259 55.819 29.3743C56.3463 29.2992 56.798 29.0733 57.174 28.6211C57.475 28.1695 57.6257 27.7178 57.6257 27.1904C57.475 26.1363 56.4965 25.3081 55.4425 25.3832C51.0002 25.8349 46.4823 26.7382 42.1908 28.0938C41.6635 28.2445 41.2875 28.6211 40.986 29.0728C40.7602 29.5245 40.6851 30.0518 40.8353 30.5785C40.986 31.4068 41.7386 32.0093 42.6425 32.0093Z" fill="white"/>
<path id="Vector_9" d="M42.6425 39.6139C42.8683 39.6139 43.0191 39.6139 43.2449 39.5388C47.3105 38.334 51.6025 37.4306 55.819 36.9789C56.3463 36.9038 56.798 36.678 57.174 36.2258C57.475 35.8492 57.6257 35.3224 57.6257 34.795C57.475 33.741 56.4965 32.9127 55.4425 33.0634C51.0002 33.5151 46.4823 34.4184 42.1908 35.774C41.6635 35.9247 41.2875 36.3013 40.986 36.753C40.7602 37.2047 40.6851 37.732 40.8353 38.2587C40.986 39.0114 41.7386 39.6138 42.6425 39.6138L42.6425 39.6139Z" fill="white"/>
<path id="Vector_10" d="M33.3062 50.7578C32.3272 50.0803 31.0472 50.8329 31.0472 51.9626V61.3744C31.0472 62.5036 32.3272 63.2568 33.3062 62.5792L40.384 57.8356C41.2874 57.2331 41.2874 55.9532 40.384 55.4259L33.3062 50.7578Z" fill="white"/>
</g>
</svg>
