<svg width="70" height="70" viewBox="0 0 70 70" fill="none" xmlns="http://www.w3.org/2000/svg">
<path id="Vector" d="M21.5312 1.39018C20.9399 0.81823 20.1473 0.502048 19.3249 0.509403C18.5024 0.516756 17.715 0.846586 17.1337 1.42799C16.5517 2.00992 16.2219 2.79673 16.2151 3.61918C16.2077 4.44166 16.5239 5.23424 17.0953 5.82611L27.4262 16.157H9.90151C7.40578 16.157 5.01183 17.1486 3.24659 18.9138C1.48134 20.6785 0.489746 23.0725 0.489746 25.5688V60.079C0.489746 62.5753 1.48134 64.9687 3.24659 66.7339C5.01183 68.4986 7.40578 69.4908 9.90151 69.4908H60.0985C62.5942 69.4908 64.9882 68.4987 66.7534 66.7339C68.5181 64.9687 69.5102 62.5753 69.5102 60.079V25.5688C69.5102 23.0725 68.5181 20.6785 66.7534 18.9138C64.9882 17.1486 62.5942 16.157 60.0985 16.157H42.5738L52.9047 5.82611C53.4761 5.2342 53.7923 4.44164 53.7855 3.61918C53.7781 2.7967 53.4477 2.00991 52.8663 1.42799C52.2844 0.846586 51.4976 0.516757 50.6751 0.509403C49.8527 0.50205 49.0601 0.81823 48.4688 1.39018L35.0005 14.8584L21.5312 1.39018ZM6.76418 25.569C6.76418 24.7371 7.09453 23.9388 7.68329 23.3505C8.27153 22.7623 9.06938 22.4319 9.90124 22.4319H60.0982C60.9301 22.4319 61.7279 22.7623 62.3162 23.3505C62.9044 23.9388 63.2353 24.737 63.2353 25.569V60.0793C63.2353 60.9112 62.9044 61.709 62.3162 62.2972C61.7279 62.886 60.9301 63.2163 60.0982 63.2163H9.90124C9.06931 63.2163 8.27153 62.886 7.68329 62.2972C7.09453 61.709 6.76418 60.9111 6.76418 60.0793V25.569Z" fill="white"/>
</svg>
